<?xml version="1.0" encoding="utf-8"?>
<!-- Generator: Adobe Illustrator 19.0.0, SVG Export Plug-In . SVG Version: 6.00 Build 0)  -->
<svg version="1.1" id="Layer_1" xmlns="http://www.w3.org/2000/svg" xmlns:xlink="http://www.w3.org/1999/xlink" x="0px" y="0px"
	 viewBox="0 0 126.5456 127.0457" enable-background="new 0 0 126.5456 127.0457" xml:space="preserve">
<g id="XMLID_110_">
	<g id="XMLID_149_">
		<path id="XMLID_180_" fill-rule="evenodd" clip-rule="evenodd" fill="#DA7327" d="M81.4354,23.0159
			c-8.9111-4.4056-17.034-5.407-30.03-1.7684c-28.0409,7.8508-34.781,90.4273,12.6559,92.4523
			C106.8296,115.5257,90.3466,27.4212,81.4354,23.0159z"/>
		<path id="XMLID_179_" fill-rule="evenodd" clip-rule="evenodd" fill="#E87924" d="M51.9818,29.4239
			c-25.58-25.6869-66.467,26.3883-29.153,77.834c19.6872,15.1533,32.6761,2.2915,32.6761,2.2915S54.9693,31.8333,51.9818,29.4239z"
			/>
		<path id="XMLID_178_" fill-rule="evenodd" clip-rule="evenodd" fill="#E87924" d="M73.4408,29.7534
			c0,0,11.5072-8.7999,28.1511-2.4095c14.5665,5.5872,26.7184,49.502-5.305,82.9106c-22.6057,12.9862-35.0971-1.1823-35.0971-1.1823
			S70.0009,31.8348,73.4408,29.7534z"/>
		<path id="XMLID_177_" fill-rule="evenodd" clip-rule="evenodd" fill="#F48120" d="M38.8611,34.6479
			c0,0-3.3109-10.7675-20.2641-3.5829c-11.1394,4.7174-32.7753,48.6923-4.7009,78.3764c19.2251,16.6988,24.7992,2.043,24.7992,2.043
			S41.2439,36.9257,38.8611,34.6479z"/>
		<path id="XMLID_176_" fill-rule="evenodd" clip-rule="evenodd" fill="#763D1A" d="M44.6296,29.2093
			c7.3751-4.7724,21.8955-7.2915,10.2228-25.1758c1.2505-1.8201,2.5311-2.1797,4.8513-3.114
			c2.2018-0.9791,3.9751-0.932,4.284-0.6281c3.7515,3.6918,3.1429,19.3507,17.972,29.3102l0,0
			C71.8017,41.4952,56.4828,35.6764,44.6296,29.2093z"/>
		<path id="XMLID_175_" fill-rule="evenodd" clip-rule="evenodd" fill="#6D3816" d="M44.6296,29.2093
			c0.3781-0.2448,0.7755-0.4832,1.1867-0.7183c2.3583-0.8206,5.1644-1.866,6.6619-2.6212c2.8055-1.4146,6.0577-5.0582,6.0449-5.2746
			c-0.013-0.216-1.9798,3.3619-3.3148,5.3281c-1.3351,1.9663-2.4208,2.8304-1.9793,2.6529
			c0.4416-0.1775,1.9408-0.1874,4.5227-3.2584c2.5819-3.071,4.5692-9.1597,4.6419-8.853c0.0724,0.3067,0.0558,3.2064-0.6179,6.029
			c-0.6739,2.8228-2.1872,5.6888-2.0001,5.4818c0.1869-0.2067,2.6318-2.3326,3.3692-4.6755c0.7374-2.3432,0.719-6.2838,0.719-6.2838
			s0.5081,5.5677,0.5073,8.1649c-0.0012,2.5975,0.0908,3.3816,0.0908,3.3816s1.5903-2.6458,1.6483-4.6342
			c0.0578-1.9884-0.0656-3.0907-0.0656-3.0907s0.91,2.0951,1.6918,4.0398c0.7822,1.9449,1.0961,2.6969,1.0961,2.6969l0.0523-4.4563
			c0,0,0.6916,1.9838,2.2892,3.4943c1.5977,1.5106,2.7208,1.0919,2.7208,1.0919s-3.4908-4.984-3.1964-4.7094
			c0.2944,0.2749,3.259,2.6347,4.4633,3.2159c1.2046,0.5812,1.4727,0.5086,1.4727,0.5086s-0.7-1.6449-1.341-3.0003
			c1.793,2.0779,3.9742,4.0743,6.6663,5.8823l0,0C71.8017,41.4952,56.4828,35.6764,44.6296,29.2093z"/>
		<path id="XMLID_174_" fill-rule="evenodd" clip-rule="evenodd" fill="#E89854" d="M61.4968,2.9037
			c0.7037-0.2866,3.7091-1.8673,2.2788-2.7855c-1.2152-0.7749-10.6524,2.46-8.9229,3.9154
			C55.5943,4.6569,57.9527,4.4869,61.4968,2.9037z"/>
		<path id="XMLID_173_" fill-rule="evenodd" clip-rule="evenodd" fill="#D38760" d="M63.4143,0.4272
			c-0.6753-0.8923-8.2772,2.3492-7.8469,3.0513C56.2588,4.6063,64.2949,1.5655,63.4143,0.4272z"/>
		<g id="XMLID_168_">
			<path id="XMLID_172_" fill-rule="evenodd" clip-rule="evenodd" fill="#8B4720" d="M63.566,3.9266
				c2.695,4.0121,4.9618,11.4936,7.3934,15.5764l2.6275,3.8991l-3.4386-3.3379C67.7429,17.1312,64.1254,7.6759,63.566,3.9266z"/>
			<path id="XMLID_171_" fill-rule="evenodd" clip-rule="evenodd" fill="#8B4720" d="M69.767,22.2537
				c-5.5618-4.3605-8.3084-10.2369-9.7979-16.9529C63.558,11.413,65.5706,16.1023,69.767,22.2537z"/>
			<path id="XMLID_170_" fill-rule="evenodd" clip-rule="evenodd" fill="#8B4720" d="M57.856,5.7549
				c4.9101,8.3907,5.4796,9.7883,0.4891,18.0354l-0.0069-0.0031C61.169,14.2449,61.0188,15.6481,57.856,5.7549z"/>
			<path id="XMLID_169_" fill-rule="evenodd" clip-rule="evenodd" fill="#8B4720" d="M61.3547,4.0731
				c1.6902,3.4859,2.5571,4.2179,3.8963,8.2517C63.349,10.0092,61.4679,7.1086,61.3547,4.0731z"/>
		</g>
		<path id="XMLID_167_" fill-rule="evenodd" clip-rule="evenodd" fill="#DF7927" d="M24.0085,56.3117l0.0024-0.0256
			c0.6584-3.1283,1.4591-6.4153,2.6723-9.39c1.2746-3.1349,3.1042-6.1209,4.8546-9.0171
			c-8.5463,8.6522-16.697,17.366-11.8941,65.3223c0.0061,1.8395,0.3014,3.8451-0.7634,5.4915
			C-0.4459,92.5094,0.4983,68.4232,0.3416,67.574c-1.4446,17.5187,1.5187,27.6767,12.2258,41.1658
			c5.7594,7.2898,14.2483,9.9964,19.0209,10.0879c1.0689,0.0176,2.9997-0.5777,3.9041-0.0261
			C28.8771,116.0705,23.2152,94.5134,22.2,88.0291c-0.7695-4.9094-0.4773-10.1086-0.1508-15.0365
			C22.4219,67.4219,22.8605,61.7819,24.0085,56.3117z"/>
		<path id="XMLID_166_" fill-rule="evenodd" clip-rule="evenodd" fill="#D36928" d="M36.2253,30.9769
			c-0.2818,30.6978-4.2679,86.2322,0.1965,88.8387C20.9597,120.0599,8.0094,50.6612,36.2253,30.9769z"/>
		<path id="XMLID_165_" fill-rule="evenodd" clip-rule="evenodd" fill="#F48120" d="M55.2947,35.9134
			c0,0-5.5228-10.2436-18.5043-5.1877c-11.3616,4.4247-26.6656,48.6432-5.8586,85.9501
			c15.6544,15.4204,26.2531,1.9778,26.2531,1.9778S57.6663,38.3655,55.2947,35.9134z"/>
		<path id="XMLID_164_" fill-rule="evenodd" clip-rule="evenodd" fill="#DF7927" d="M45.2885,50.3777
			c-10.663,42.768-5.982,65.0553-9.1523,64.672c-8.9273-1.0799-11.7472-15.9962-12.8552-17.6662
			c0.8966,6.3557,3.9938,13.6879,7.6508,19.2923c2.991,5.3226,10.5508,7.2735,16.3695,6.3191
			c-0.5959-0.8483-0.8769-1.7916-1.2384-2.7403c-1.0598-2.7588-1.9086-5.5381-2.44-8.4271
			c-1.3387-7.2575-1.8531-14.6953-2.2928-22.0385C40.9551,83.5233,44.4345,56.6123,45.2885,50.3777z"/>
		<path id="XMLID_163_" fill-rule="evenodd" clip-rule="evenodd" fill="#D36928" d="M46.9432,124.0114
			c0,0-6.646-6.8105-7.7008-30.9685c-1.0517-24.0727,4.7682-50.6354,15.5183-57.956c-0.4904,19.5234-7.0999,87.1063-4.1045,88.5285
			C50.1461,123.589,46.9432,124.0114,46.9432,124.0114z"/>
		<path id="XMLID_162_" fill-rule="evenodd" clip-rule="evenodd" fill="#F68F3B" d="M20.6372,74.8654
			c6.046-27.9693,12.8402-42.7996,28.7072-44.3051C25.1373,21.0537,20.3828,65.0295,20.6372,74.8654z"/>
		<path id="XMLID_161_" fill-rule="evenodd" clip-rule="evenodd" fill="#F48120" d="M91.8539,37.9987
			c0,0,1.0171-8.9483,16.0047-6.3814c6.2468,1.0677,11.2021,6.852,14.1059,15.2824c0.1791,0.3665,0.3464,0.7473,0.4998,1.1464
			c3.8071,9.9196,5.0776,23.4025,3.2725,33.6498c-1.0566,5.9934-2.0667,11.0948-4.4931,16.7216
			c-2.4252,5.623-6.0803,11.1312-11.2688,15.9518c-3.1623,2.9352-8.6784,6.3897-16.3914,7.2644
			c-3.6413,0.4149-10.0599,0.3727-13.9172-1.0341c0.6258-0.2661,4.451-3.851,6.0517-5.2094
			c-2.2302-1.5362-3.5894-2.951-3.5894-2.951S89.2499,40.0251,91.8539,37.9987z"/>
		<path id="XMLID_160_" fill-rule="evenodd" clip-rule="evenodd" fill="#DF7927" d="M126.5392,72.647
			c-0.8744,15.8568-4.5349,30.5004-16.5483,41.7051c-3.153,2.9461-8.6596,6.4102-16.371,7.3015
			c-3.7422,0.4351-7.4734,0.3421-11.1585-0.4307c2.1262-0.715,4.0343-5.0517,5.0741-7.0424
			C107.5023,114.7797,118.883,106.4113,126.5392,72.647z"/>
		<path id="XMLID_159_" fill-rule="evenodd" clip-rule="evenodd" fill="#D36928" d="M88.1074,119.876
			c16.7113-14.8303,24.9415-67.3815,7.1971-86.8492c2.1265,32.2313-6.2724,84.2156-9.6567,84.819
			C86.1446,117.958,88.1074,119.876,88.1074,119.876z"/>
		<path id="XMLID_158_" fill-rule="evenodd" clip-rule="evenodd" fill="#F48120" d="M72.6692,35.534
			c0,0,7.2953-9.3738,18.9062-5.3875c11.6092,3.9847,21.579,53.2345-2.9331,88.2148c-12.2523,17.3823-26.3171-0.7147-26.3171-0.7147
			S70.0564,37.7285,72.6692,35.534z"/>
		<path id="XMLID_157_" fill-rule="evenodd" clip-rule="evenodd" fill="#DF7927" d="M103.7018,74.0888
			c0.1131,15.6062-5.735,32.0374-14.3819,44.3074c-2.6075,3.6992-7.9213,8.1871-13.0326,7.7832
			c-2.4474-0.1948-8.209-0.4528-9.9843-1.968c-0.8694-0.7463-0.6236-0.6475-1.5213-1.3541
			c-0.7565-0.5918,1.0847-2.8044,0.3839-3.4639c3.4273,0.2093,5.4476-2.954,7.5333-4.9949
			c5.7102-5.5918,10.2829-38.8421,12.523-46.1471c3.395,17.7361,0.3122,33.6492,1.6765,38.8961
			c0.6433,2.4679,2.6063,3.4829,4.4523,1.7158C97.5348,102.9501,102.5651,82.9368,103.7018,74.0888z"/>
		<path id="XMLID_156_" fill-rule="evenodd" clip-rule="evenodd" fill="#D36928" d="M73.2804,34.8399
			c-1.5091,19.4693-2.9916,89.1496-6.1141,90.2617C91.7985,126.365,92.0287,47.9924,73.2804,34.8399z"/>
		<path id="XMLID_155_" fill-rule="evenodd" clip-rule="evenodd" fill="#F48120" d="M85.0352,82.5761
			c-0.3513-26.3013-3.846-49.6437-19.4-50.5831c-17.6648-1.0657-23.3287,21.2725-25.0986,47.5043
			c-2.7546,40.8618,8.9413,47.3231,20.1748,47.3895C74.7913,126.9756,85.4522,114.0669,85.0352,82.5761z"/>
		<path id="XMLID_154_" fill-rule="evenodd" clip-rule="evenodd" fill="#DF7927" d="M73.2804,34.8399
			c23.4108,57.9152-19.1651,107.9084-32.4749,69.3078c2.9248,19.38,12.4209,22.5305,19.4486,22.824
			C92.3611,129.787,91.5038,51.4144,73.2804,34.8399z"/>
		<path id="XMLID_153_" fill-rule="evenodd" clip-rule="evenodd" fill="#F68F3B" d="M70.4146,37.8043
			c0,0-6.067-8.5075-14.7896-1.2812c-7.6113,6.3055-14.4077,24.2111-12.1714,45.506
			C48.0224,50.2923,59.1387,34.3401,70.4146,37.8043z"/>
		<path id="XMLID_152_" fill-rule="evenodd" clip-rule="evenodd" fill="#F68F3B" d="M5.2604,60.0523
			c7.8874-19.0448,15.7773-25.2561,19.373-26.7997c2.5932-4.297-5.6482-2.7934-7.9888-0.0816
			C5.6245,45.3068,3.0182,60.3616,5.2604,60.0523z"/>
		<path id="XMLID_151_" fill-rule="evenodd" clip-rule="evenodd" fill="#F68F3B" d="M101.2518,78.081
			c-0.6342-29.1413-8.1606-45.4816-24.169-43.7408C103.207,20.9154,102.4226,69.006,101.2518,78.081z"/>
		<path id="XMLID_150_" fill-rule="evenodd" clip-rule="evenodd" fill="#F68F3B" d="M103.639,36.8983
			c-0.4969-2.7777,2.7534-1.8487,5.7847-0.3402c9.0454,5.5243,9.334,29.233,8.9333,29.1945
			C118.5415,66.661,112.6063,40.6079,103.639,36.8983z"/>
	</g>
</g>
<g id="XMLID_14_">
	<path fill="#290E15" d="M55.9474,71.4152c0.8615-0.3112-20.397-15.9412-32.2784-20.113
		c3.0308,12.6258,10.0548,22.9673,10.0548,22.9673S51.2783,73.1069,55.9474,71.4152z"/>
	<path fill="#290E15" d="M69.0454,69.6758c0.2329,0.0137,17.9214,7.2078,18.4765,7.1635
		c0.5552-0.0465,14.9306-17.9381,17.395-23.6186c-8.4189,2.492-35.3261,15.2255-35.3261,15.2255L69.0454,69.6758z"/>
	<polygon fill="#290E15" points="64.5684,71.3505 71.2403,88.0259 52.4787,86.0188 	"/>
	<path fill="#290E15" d="M89.0505,88.9274c0.4156,2.0477,0.6992,4.2086,0.3327,5.2391c-0.8039,2.2595-9.4807,2.8033-11.2772,2.8124
		c-0.8209,0.0042-1.3768-1.9978-1.7546-4.2534c-10.3366,1.8474-20.6808,0.9317-30.2844-1.0682
		c-0.9494,2.3292-1.8729,4.5697-1.8848,4.5001c-0.0246-0.1436-9.9918-0.6248-11.4505-2.1009
		c-0.7624-0.7714-0.2138-3.589,0.5183-6.2702C23.1573,82.1172,18.563,71.671,16.444,65.5224
		c-0.2169,27.6302,13.4622,38.6472,26.2981,42.9109l2.3827-4.9073c0,0,7.0115-1.4664,7.5129,1.3784
		c0.3062,1.7375,0.8212,3.8995,1.2006,5.8244c6.2672,0.6059,10.7868-0.0134,10.7868-0.0134s3.5659-0.359,7.9034-0.9909
		c-0.3134-2.8262-0.5143-6.183-0.5143-6.183s7.2454-1.6109,8.7151-1.3413c0.8989,0.1649,2.4652,2.6526,3.7268,5.0966
		c0.281-0.0903,0.5538-0.1813,0.8071-0.2742c15.943-7.1648,17.2384-19.8425,20.8787-29.3915
		C100.6455,82.7465,94.9004,86.4007,89.0505,88.9274z"/>
</g>
</svg>
